<svg enable-background="new 0 0 24 24" style="fill:white;" height="512" viewBox="0 0 24 24" width="512" xmlns="http://www.w3.org/2000/svg"><path d="m13.5 24h-11c-1.379 0-2.5-1.122-2.5-2.5v-19c0-1.378 1.121-2.5 2.5-2.5h11c1.379 0 2.5 1.122 2.5 2.5v2c0 .276-.224.5-.5.5s-.5-.224-.5-.5v-2c0-.827-.673-1.5-1.5-1.5h-11c-.827 0-1.5.673-1.5 1.5v19c0 .827.673 1.5 1.5 1.5h11c.827 0 1.5-.673 1.5-1.5v-2c0-.276.224-.5.5-.5s.5.224.5.5v2c0 1.378-1.121 2.5-2.5 2.5z"/><path d="m10 3h-4c-.827 0-1.5-.673-1.5-1.5 0-.276-.225-.5-.5-.5h-1c-.276 0-.5-.224-.5-.5s.224-.5.5-.5h1c.827 0 1.5.673 1.5 1.5 0 .276.225.5.5.5h4c.275 0 .5-.224.5-.5 0-.827.673-1.5 1.5-1.5h1c.276 0 .5.224.5.5s-.224.5-.5.5h-1c-.275 0-.5.224-.5.5 0 .827-.673 1.5-1.5 1.5z"/><path d="m22.5 17h-11c-.827 0-1.5-.673-1.5-1.5v-7c0-.827.673-1.5 1.5-1.5h11c.827 0 1.5.673 1.5 1.5v7c0 .827-.673 1.5-1.5 1.5zm-11-9c-.275 0-.5.224-.5.5v7c0 .276.225.5.5.5h11c.275 0 .5-.224.5-.5v-7c0-.276-.225-.5-.5-.5z"/><path d="m17 13.156c-.318 0-.636-.076-.926-.227l-5.805-3.029c-.245-.128-.34-.43-.212-.675s.432-.339.675-.212l5.806 3.029c.289.151.637.151.926 0l5.806-3.029c.245-.127.547-.033.675.212s.033.547-.212.675l-5.806 3.029c-.291.151-.61.227-.927.227z"/></svg>