<svg id="Capa_1" style="fill:white;" enable-background="new 0 0 512 512" height="512" viewBox="0 0 512 512" width="512" xmlns="http://www.w3.org/2000/svg"><path d="m29.518 388.587h-11.34c-1.771 0-3.212-1.441-3.212-3.212v-176.934c0-2.345.579-4.613 1.675-6.559 2.364-4.195 3.613-9.032 3.613-13.989s-1.249-9.794-3.613-13.99c-1.096-1.945-1.675-4.212-1.675-6.557v-1.19c0-3.728 1.779-7.403 4.879-10.081 7.256-6.267 11.418-15.736 11.418-25.979 0-10.244-4.162-19.713-11.418-25.98-3.101-2.678-4.879-6.352-4.879-10.08v-18.782c0-1.771 1.441-3.212 3.212-3.212h270.141c4.133 0 7.483-3.35 7.483-7.483s-3.35-7.483-7.483-7.483h-270.141c-10.023.001-18.178 8.155-18.178 18.178v18.782c0 8.081 3.668 15.884 10.063 21.407 3.904 3.371 6.234 8.849 6.234 14.653s-2.331 11.282-6.234 14.653c-6.395 5.523-10.063 13.326-10.063 21.407v1.19c0 4.914 1.246 9.722 3.603 13.904 1.102 1.957 1.686 4.254 1.686 6.643 0 2.388-.583 4.685-1.686 6.642-2.357 4.183-3.603 8.991-3.603 13.906v176.934c0 10.023 8.155 18.178 18.178 18.178h11.34c4.133 0 7.483-3.35 7.483-7.483s-3.35-7.483-7.483-7.483z"/><path d="m512 111.221v-35.967c0-10.023-8.154-18.178-18.177-18.178h-170.584c-4.133 0-7.483 3.35-7.483 7.483s3.35 7.483 7.483 7.483h170.584c1.77 0 3.211 1.441 3.211 3.212v35.967c0 1.854-.701 3.545-1.923 4.641-5.637 5.05-8.869 12.551-8.869 20.579s3.233 15.528 8.87 20.579c1.222 1.095 1.922 2.786 1.922 4.64v46.657c0 1.809-.696 3.494-1.91 4.624-8.269 7.697-13.011 19.031-13.011 31.095s4.742 23.398 13.011 31.095c1.214 1.13 1.91 2.815 1.91 4.623v105.62c0 1.771-1.441 3.212-3.211 3.212h-72.88c1.78-4.744 2.737-9.848 2.726-15.139-.025-11.676-4.67-22.433-12.756-30.289h26.01c6.239 0 11.314-5.075 11.314-11.314v-204.291c0-6.238-5.075-11.313-11.314-11.313h-54.389c-4.667 0-9.009 2.312-11.614 6.185l-3.342 4.969-3.341-4.97c-2.605-3.872-6.947-6.185-11.614-6.185h-62.68c-12.553 0-24.308 4.976-32.945 13.656-8.655-8.699-20.679-13.656-32.945-13.656h-146.981c-6.238 0-11.313 5.075-11.313 11.313v204.292c0 6.239 5.075 11.314 11.313 11.314h35.415c5.099 0 9.841-2.526 12.685-6.757l6.279-9.337 6.279 9.337c1.778 2.644 4.297 4.622 7.181 5.734 1.73.667 3.592 1.022 5.504 1.022h213.501c2.738 10.796 9.764 20.389 19.673 26.477 1.786 1.097 2.164 2.722 2.166 3.894.004 1.734-.755 3.069-2.277 3.978l-.158.095c-4.769 2.87-8.861 6.627-12.118 10.983h-14.736c-1.478 0-2.823-.664-3.511-1.734-4.486-6.977-11.793-11.142-19.549-11.142s-15.063 4.165-19.549 11.142c-.688 1.07-2.033 1.735-3.512 1.735h-246.24c-4.133 0-7.483 3.35-7.483 7.483s3.35 7.483 7.483 7.483h246.242c6.616 0 12.634-3.217 16.1-8.607 1.745-2.714 4.281-4.27 6.961-4.27 2.679 0 5.216 1.556 6.96 4.269 3.465 5.39 9.483 8.607 16.1 8.607h7.542c-.895 3.444-1.373 7.015-1.373 10.641v30.254c0 2.809 1.097 5.447 3.088 7.427 1.978 1.968 4.599 3.049 7.386 3.049h.057l16.959-.09c5.747-.029 10.422-4.728 10.422-10.476v-30.274c0-1.609.865-3.126 2.277-3.97l.138-.083c3.085-1.844 5.862-4.029 8.321-6.479h82.537c10.023 0 18.177-8.155 18.177-18.178v-105.62c0-5.949-2.434-11.627-6.678-15.578-5.239-4.876-8.243-12.217-8.243-20.141 0-7.923 3.004-15.264 8.243-20.14 4.244-3.951 6.678-9.629 6.678-15.578v-46.654c0-6.103-2.516-11.857-6.902-15.786-2.436-2.183-3.891-5.71-3.891-9.433 0-3.724 1.455-7.251 3.891-9.433 4.387-3.929 6.903-9.683 6.903-15.787zm-361.85 216.83-12.489-18.571c-1.39-2.067-3.718-3.307-6.209-3.307s-4.819 1.24-6.209 3.307l-12.489 18.571c-.059.089-.159.142-.266.142h-31.764v-196.988h143.329c10.137 0 19.508 4.788 25.462 12.906v13.925c0 4.133 3.35 7.483 7.483 7.483s7.483-3.35 7.483-7.483v-13.925c5.954-8.118 15.325-12.905 25.462-12.905h62.164l9.262 13.773c1.39 2.068 3.718 3.307 6.209 3.307s4.819-1.24 6.209-3.307l9.263-13.774h50.221v196.988h-168.79v-136.465c0-4.133-3.35-7.483-7.483-7.483s-7.483 3.35-7.483 7.483v136.465h-99.099c-.107.001-.206-.052-.266-.142zm245.118 69.146-.137.082c-5.889 3.519-9.547 9.958-9.547 16.805v25.808l-7.982.042v-25.74c0-9.673 5.148-18.78 13.435-23.767l.137-.082c5.994-3.582 9.563-9.88 9.547-16.845-.013-6.835-3.489-13.046-9.298-16.614-5.408-3.323-9.516-8.18-11.797-13.725h8.763c1.627 2.712 3.897 4.977 6.669 6.599 8.522 4.985 13.624 13.853 13.645 23.722.021 9.808-4.994 18.67-13.435 23.715z"/><path d="m209.72 194.196c0-16.886-13.737-30.623-30.623-30.623h-27.337c-6.063 0-10.996-4.933-10.996-10.996 0-4.133-3.35-7.483-7.483-7.483s-7.483 3.35-7.483 7.483c0 14.315 11.647 25.962 25.962 25.962h27.337c8.633 0 15.657 7.024 15.657 15.657 0 8.634-7.024 15.657-15.657 15.657h-11.228c-4.133 0-7.483 3.35-7.483 7.483s3.35 7.483 7.483 7.483h11.228c8.633 0 15.657 7.023 15.657 15.657s-7.024 15.658-15.657 15.658h-31.017v-54.798c0-4.133-3.35-7.483-7.483-7.483s-7.483 3.35-7.483 7.483v60.446c-4.488 4.035-7.317 9.882-7.317 16.378v5.565c0 4.133 3.35 7.483 7.483 7.483s7.483-3.35 7.483-7.483v-5.565c0-3.893 3.168-7.061 7.061-7.061h31.272c16.886 0 30.623-13.738 30.623-30.623 0-9.234-4.114-17.521-10.599-23.14 6.485-5.62 10.6-13.906 10.6-23.14z"/><path d="m298.902 189.108h49.886c4.133 0 7.483-3.35 7.483-7.483s-3.35-7.483-7.483-7.483h-49.886c-4.133 0-7.483 3.35-7.483 7.483s3.35 7.483 7.483 7.483z"/><path d="m298.902 272.454h49.886c4.133 0 7.483-3.35 7.483-7.483s-3.35-7.483-7.483-7.483h-49.886c-4.133 0-7.483 3.35-7.483 7.483s3.35 7.483 7.483 7.483z"/><path d="m374.063 189.108h11.973c4.133 0 7.483-3.35 7.483-7.483s-3.35-7.483-7.483-7.483h-11.973c-4.133 0-7.483 3.35-7.483 7.483s3.35 7.483 7.483 7.483z"/><path d="m341.889 209.811c0 4.133 3.35 7.483 7.483 7.483h16.792c4.133 0 7.483-3.35 7.483-7.483s-3.35-7.483-7.483-7.483h-16.792c-4.133.001-7.483 3.351-7.483 7.483z"/><path d="m323.845 202.329h-24.61c-4.133 0-7.483 3.35-7.483 7.483s3.35 7.483 7.483 7.483h24.61c4.133 0 7.483-3.35 7.483-7.483s-3.35-7.483-7.483-7.483z"/><path d="m323.845 229.908h-24.61c-4.133 0-7.483 3.35-7.483 7.483s3.35 7.483 7.483 7.483h24.61c4.133 0 7.483-3.35 7.483-7.483s-3.35-7.483-7.483-7.483z"/><path d="m408.651 229.908h-59.863c-4.133 0-7.483 3.35-7.483 7.483s3.35 7.483 7.483 7.483h59.863c4.133 0 7.483-3.35 7.483-7.483s-3.35-7.483-7.483-7.483z"/><path d="m383.96 209.811c0 4.133 3.35 7.483 7.483 7.483h17.209c4.133 0 7.483-3.35 7.483-7.483s-3.35-7.483-7.483-7.483h-17.209c-4.134.001-7.483 3.351-7.483 7.483z"/></svg>